<svg version="1" xmlns="http://www.w3.org/2000/svg" width="933.333" height="933.333" viewBox="0 0 700.000000 700.000000"><path d="M328.5.6c-20.3 2-27.6 2.8-37.5 4.5-61 10.5-119.5 37.6-166.5 77.2-9.5 8.1-31 29.4-39.4 39.2C38.3 175.7 10.9 239.1 1.8 314c-1.7 13.7-1.7 58.3 0 72 6.9 56.9 22.7 102.8 51.4 149.1 14.5 23.6 31.1 44 52.5 64.9 20.4 20 37.1 33.2 59.2 46.8 46.3 28.7 92.2 44.5 149.1 51.4 13.7 1.7 58.3 1.7 72 0 56.9-6.9 102.8-22.7 149.1-51.4 36-22.2 69.2-52.8 95.8-88.2 32.3-43 54.9-96 64-150.1 3.8-22.3 4.6-32.7 4.6-58.5 0-25.8-.8-36.2-4.6-58.5-10.5-62.7-38.2-121.6-80-170-8.4-9.8-29.9-31.1-39.4-39.2-51.8-43.7-114.8-71-184.5-79.8C379.3 1 337.4-.3 328.5.6zm64.6 26.8c77.1 11.1 142.3 45.1 195.6 101.9 45 47.9 74.2 109.7 83.9 177.6 2.1 14.7 3 55.8 1.5 71.8-5 54.3-23.8 107.9-53.1 151.3-5.3 7.9-20.6 27.9-25.8 33.8l-3.8 4.3-19.5-4.9c-11.7-3-23.3-6.6-29-9.1-5.2-2.2-9.8-4.1-10.3-4.1-.4 0-4.3-1.6-8.5-3.6s-11.3-4.7-15.9-6c-10.3-3-22.7-8.8-26.7-12.4-3.5-3.1-7.1-5.2-13.6-7.4-2.5-.9-5.4-2.3-6.5-3.2-1-.8-1.3-1.2-.5-.8 1.1.5 1.2-.2.8-4-.6-4.6-.6-4.6 2.4-4.6 1.7 0 2.8-.4 2.4-.9-.3-.5.5-1.3 1.7-1.7 3-.9 4-2.5 2.5-4.2-.9-1.1-.7-1.7.6-2.7 1-.7 1.5-1.9 1.1-2.9-.3-.9-.2-1.6.2-1.6.5 0 2.6-1.6 4.7-3.5 3-2.7 3.6-3.9 3.1-5.9-.3-1.3-.1-2.7.5-3 .5-.4.8-1.3.4-2.1-.3-.8 0-1.5.5-1.5.6 0 1.1-.8 1.1-1.7 0-5.9 3.4-14.3 5.7-14.3.7 0 1.4-.9 1.7-1.9.3-1.4-.2-2.1-1.9-2.5-1.3-.4-2.4-1.1-2.4-1.7 0-.6.5-.7 1.1-.3 1.7 1 2.8-1.5 2.2-5.2-.8-4.9.4-8.4 2.8-8.4 1.4 0 1.9-.5 1.6-1.3-.3-.8-.1-2 .3-2.8.5-.7.5-1.8-.1-2.5-.7-.9-.3-1.9 1.3-3.4 1.8-1.7 2-2.3.9-2.9-1.1-.7-1.1-1.3.2-3.1 1.2-1.7 1.3-2.8.6-4.2-.8-1.5-.6-1.8 1.7-1.8 2.1 0 2.5-.3 1.9-1.8-2.9-6.8-3-7.3-1.7-8.1 1.6-1 2.2-7.1.9-8.9-.6-.7-.5-1.2.2-1.2.6 0 1.1.4 1.1 1 0 .5.4 1 1 1 1 0 .3-5.4-1.2-8.3-.5-1.1-.5-1.7.2-1.7.5 0 1-1.1 1-2.5s.4-2.5.8-2.5.7-4 .7-8.9c-.1-7.1.1-8.8 1.2-8.4 1 .4 1.3-.7 1.4-4.1.2-5 .2-5.3 1.3-7.9.5-.9.6-2.3.3-3.1-.3-.8 0-1.9.7-2.6 1-.8 1.5-.6 2.1.7.5 1.3 1.3.2 3.1-4.6 1.3-3.5 2.4-7.2 2.4-8.2 0-2.4 1.7-3.4 3.5-1.9 1 .9 1.4.4 2-2.2.3-1.8 1-4.2 1.5-5.3 3.3-7.8 4.2-12 4.6-20 .3-8.8 2.6-20.3 4.2-21.4.9-.7 3.2-16.8 3.2-22.9 0-2.2.7-6.7 1.5-9.9 1-3.9 1.4-9 1.1-15.8-.8-19.1-1.8-29.5-3-29.5s-12.8-24.1-12-25c1.3-1.2 5 5.6 10.1 18.5 2.1 5.4 2.3 5.6 1.7 2-.3-2.2-1.7-6.7-3-9.9-1.3-3.3-2.4-6.4-2.4-6.9s-1.4-2.5-3.1-4.4c-1.7-2-3.7-5.2-4.6-7.2-.8-2-1.9-4.4-2.4-5.3-.5-1-.9-3.3-.9-5.2 0-2.5-.5-3.5-2-3.9-2-.5-2.9-3.7-1-3.7.5 0 .7-.7.4-1.5-.4-.8-1.2-1.5-1.9-1.5-.8 0-2.3-1.4-3.5-3-1.2-1.7-1.7-3-1.2-3s1.7 1 2.5 2.2c.9 1.3 1.6 1.8 1.6 1.2.1-.6-4.8-6.5-10.8-13.1-10.1-11.1-22.1-20.9-27.9-22.7-1.1-.4-3.1-2.1-4.5-3.9-8.5-11-25.4-24.9-33.1-27.2-5.8-1.8-15.6-3.2-27-3.9-4.4-.3-8.4-1.1-9-1.7-.8-.9-.5-1 1.2-.6 1.2.3 2.2.4 2.2.2 0-.1-2.7-1.9-6-3.9-6.2-3.8-20-9.1-20-7.7 0 .5 1 1.2 2.3 1.6 1.9.7 1.7.9-1.6 1.2-2.2.3-4.5-.1-5.4-.8-.9-.8-3.8-1.2-7.5-1.1-4.4.2-6.3-.1-7.2-1.2-.8-1.1-2-1.3-4.6-.7l-3.5.8 3 .7c5.7 1.4 6.2 1.7 4 2.6-2.7 1.2-7.3 1.2-7.9.1-.5-.8-8.8-1.5-15.9-1.3-3.2.1-2.7-1.7.6-1.9 1.6-.1 1.7-.3.5-.6-5.5-1.4-46.6 7-51.8 10.7-1.4 1-3.9 2.2-5.4 2.6-1.6.4-5.8 2.2-9.5 4-5.2 2.6-6.1 3.3-4 3.3 2.4.1 3.9 1.7 3.9 4 0 .4-1.7 1.5-3.7 2.5-3.4 1.6-3.6 1.6-2.2 0 1.3-1.6 1.2-1.6-.8-.5-1.3.6-2.7 2-3.3 3.1-.6 1-2.1 2.5-3.3 3.2-6.8 3.8-9.7 6.2-10.9 8.9-.8 2-4.2 5-9.4 8.5-4.5 2.9-9.5 7-11 8.9-1.6 1.9-8.9 9.4-16.1 16.7-7.3 7.2-13.3 13.9-13.3 14.9s-.4 2.1-1 2.4c-.5.3-1 1.4-1 2.4 0 .9-2.6 4.8-5.8 8.7-7.3 8.6-12.2 15.4-12.2 16.7 0 .6.7.2 1.5-.9 2.2-2.9 1.8-.8-2.1 10.1-3 8.8-3.3 10.3-2.2 12.5.7 1.4 1.8 2.8 2.4 3.2.9.6.8 1.8-.2 4.8-5 14.4-6.7 23.6-6.7 36.5-.1 11.5.3 14 2.6 21.3 1.6 4.9 2.7 10.6 2.7 13.8 0 3 .7 8 1.5 11.2.8 3.1 2.2 9.5 3 14.2.9 4.7 2.7 11.4 4.1 15 4.4 11.5 4.3 11.3 5.9 10 1.1-.9 1.5-.3 2 3.4.5 2.9 1.2 4.6 2.1 4.6.9 0 1.4 1.1 1.4 3.2 0 2.5.3 2.9 1.2 2 2.9-2.9 4.2.2 2.7 6.6-.6 2.6-1.2 6.6-1.3 8.9-.2 3.6 0 4.1 1.2 3.1 1.2-1.1 1.3-.6.8 3.4-.6 4.2-.3 5 2.2 8 2.8 3.1 3.9 6.8 4.7 14.8.1 1.9.6 4.3 1 5.2.3.9.2 2.5-.3 3.5-.7 1.3-.4 2.9 1.3 6.1 1.4 2.5 2.5 3.8 2.8 3 .3-.7.6-.4.6.7.1 1.2-.4 2.6-1.1 3.3-.9.9-.9 1.2.1 1.2.9 0 1.2 1.5 1.1 4.7-.1 2.7-.1 5.1-.1 5.5.1.5.1 1.1.2 1.5 0 .5.5 1.4 1.1 2 .5.7 1 2.9 1 4.8 0 2.3.6 3.9 1.5 4.2.9.4 1.3 1.4.9 2.9-.3 1.2-.1 2.6.4 2.9.7.4.3 1.4-1 2.5-2.1 1.8-2.1 1.8-.1 2.5 1.3.4 2.2 1.8 2.6 4.5.4 2.2 1.1 4.2 1.6 4.6.5.3.6 1.6.3 3-.4 1.7-.1 2.6 1 3 .9.4 1.6 1.8 1.6 3.4 0 1.6.5 3.2 1.1 3.5.6.4.8 1.3.5 2.1-.3.7.6 2.7 2 4.3 1.5 1.8 2 3.2 1.4 3.6-1.3.8-1.3 4.5 0 4.5.6 0 1 1.3 1 3 0 2.2.4 2.8 1.5 2.4 1.1-.5 1.3-.2.9 1-.4 1 0 1.8 1 2.2 1.1.4 1.4 1.4 1.1 3.5-.3 1.6-.1 2.9.4 2.9s.6 1.2.2 2.7c-.5 2-1.8 3.2-4.7 4.3-2.2.8-6 2.7-8.4 4.1-5.6 3.2-18 7.3-28.4 9.3-6.1 1.2-9.3 2.5-13.5 5.5-7.8 5.3-10.2 6.5-23.7 11-14.3 4.8-17.5 5.6-28.5 7.6-4.6.8-11.2 2.6-14.6 4-3.5 1.4-6.9 2.5-7.7 2.5-1.7 0-13.7-15.5-23.4-30.3-29.9-45.4-47.2-94.9-52.3-150-1.5-16-.6-57 1.5-71.8 11-76.8 45.1-142.3 101.9-195.6C178.4 65.2 245.9 34 311.5 27c6.1-.6 11.9-1.3 13-1.5 5.6-1 58.9.5 68.6 1.9zm-66.8 44.3c-.7.2-1.9.2-2.5 0-.7-.3-.2-.5 1.2-.5s1.9.2 1.3.5zm61.2 2.3c.3.5.2 1-.4 1-.5 0-1.3-.5-1.6-1-.3-.6-.2-1 .4-1 .5 0 1.3.4 1.6 1zm2 5l2 .9h-2c-1.1 0-2.9-.4-4-.9l-2-.9h2c1.1 0 2.9.4 4 .9zM277 89.6c0 .7-7.1 3.6-7.7 3-.3-.2.8-1.1 2.4-2 2.9-1.6 5.3-2 5.3-1zm177.3 69.9c3.5.4 5.3 1.9 6.1 5 .4 1.6 1.4 2.5 2.6 2.5 2.3 0 7 6.5 7 9.7 0 1.3.4 2.3.9 2.3s1.2 1.1 1.5 2.5c.4 1.4 1.1 2.3 1.7 1.9.7-.4.8.7.4 3.3-1.2 7.1-1.6 8.4-2.5 7.8-.6-.3-1-.2-1 .4 0 1.1-4.9 3.9-9 5.2-1.6.5-1.9.8-.7.8.9.1 4.7-1.3 8.4-2.9 3.6-1.7 7-3 7.4-3 .5 0 .9 1.2.9 2.6 0 1.8-.6 2.8-2.1 3.1-1.4.4-1.9 1.2-1.6 2.4.3 1 .1 1.9-.4 2.1-.5.2 0 2.1 1.1 4.2 1.8 3.7 1.8 4 .3 5.2-1.5 1-1.5 1.4-.4 2.8 2 2.4-.3 2.1-6.8-1.1-5.1-2.5-5.3-2.8-3.1-3.4 2.3-.6 2.3-.7.3-.8-1.2-.1-2.3-.6-2.5-1.2-.3-.8-1.8-.9-4.5-.4-3 .5-4 1-3.6 2.1.6 1.6-2.7 2-4.2.5s-15-2.7-14.1-1.3c.5.8-.2 1.2-2.1 1.2-1.5 0-3.5.5-4.3 1-1.3.8-1.3 1 0 1 1.1 0 1.1.3.2 1.2-.9.9-1.5.8-2.4-.4-1.2-1.5-1.8-1.5-6.3-.3-3.8 1-4.3 1.4-2.2 1.4 3.3.1 2.7 2.1-.6 2.1-1.2 0-3.5.7-5.1 1.5-1.5.8-3.3 1.5-3.9 1.5-.6 0-4.9 1.4-9.6 3.1-8.8 3.2-12.4 6-15 11.5-.7 1.6-1.7 3.7-2.2 4.7-.6 1-.6 2.4 0 3.5.9 1.7.1 8.8-1.3 11-1 1.6-1.8 13.9-1.1 16.2.4 1.1 1.2 2 2 2 .7 0 1.8 1.4 2.4 3.1 1.4 4.2 2.7 3 3.4-3.3.7-5.9 3.3-8.7 7.8-8.8 1.5 0 2.9-.7 3.3-1.5.3-.8 1.1-1.5 1.9-1.5.7 0 2.8-1.4 4.6-3.2 3.1-3 3.4-3.1 4.6-1.4 1.2 1.6 1.4 1.6 1.7-1.1.2-1.5.8-2.8 1.3-2.9 1.3-.1 3.9-1.1 9.7-3.6 2.5-1.1 5.4-1.8 6.4-1.4.9.3 2.2.2 2.9-.4 2-1.6 11.2-2.1 12.5-.6 1.8 2.2 0 4.5-4.4 5.6-2.2.6-6.2 1.7-8.8 2.5-2.6.8-5.7 1.5-7 1.5-1.3 0-4.7 1.4-7.7 3-3 1.7-6 3-6.7 3-.6 0-4 2.6-7.4 5.9-7.6 7.1-7.6 9.2-.3 9 3.9-.1 4.3-.3 1.9-.8-4.2-.9-4.2-2.5-.1-3.9 1.9-.7 5.4-2.9 7.7-4.9 4.9-4.1 13.2-8.3 16.6-8.3 1.9 0 2.2.5 2.2 4.2.2 9.3 6.4 15.8 15.1 15.8 2.9 0 4.9.4 4.9 1.1 0 .7 1.4 1 3.5.7 4-.5 4.7.8 1.1 2.2-1.3.5-2.5 1.3-2.7 1.9-.2.6-2.2 1.1-4.4 1.1-12.5.2-19.5-.1-19.5-.8 0-.5-1.3-.7-3-.4-1.7.2-3 1-3 1.8 0 1.9 8.8 7.4 11.7 7.4 1.3 0 2.3.4 2.3 1 0 .5 1.5 1 3.3 1 1.9 0 3.7.3 4 .7 1.1 1.1 11.6 1.3 12.2.3.4-.6 1.3-.7 2.3-.2.9.5 4.2.6 7.2.3 5.1-.6 5.5-.8 6.6-4.1.7-1.9 1.5-4.8 1.9-6.3.3-1.7 1.5-3.1 2.9-3.7 1.3-.5 2.7-1.4 3.1-1.9.8-1.4 6.2-1.4 7-.1.3.5 2.2-.2 4.2-1.5 2-1.4 4.3-2.5 5.2-2.4 1.1 0 1.2.2.3.6-1 .4-1 .8-.2 1.8 1.5 1.8 2.3 14.2 1 15-.6.3-.7 1.7-.4 3.1.4 1.4.2 2.4-.5 2.4-.6 0-.8.7-.5 1.5.4.8.1 2.2-.6 3-.6.8-.9 1.8-.6 2.3.3.5-.1 2.2-.8 3.8-.8 1.6-1.7 6.3-2.1 10.4-.3 4.1-1.5 9.4-2.6 11.7-1 2.4-1.9 4.8-1.9 5.4 0 .8-.5.8-1.5-.1-1.9-1.6-3-.7-2 1.7 2.1 5 1.8 18.4-.4 20.6-1.5 1.5-1.4 6.7.2 6.8 1 0 1 .2 0 .6-.7.2-1.3 1.8-1.3 3.3 0 1.6-.5 3.2-1.1 3.6-.6.3-.9 1.4-.6 2.3.2 1-.2 2.6-.9 3.6-.8 1-1.4 2.9-1.4 4.1 0 1.3-.7 3-1.6 3.9-1.3 1.2-1.4 1.9-.4 3 .9 1.1.9 1.5.1 1.5-.6 0-1.1.7-1.1 1.5 0 .9-.9 1.5-2.2 1.5h-2.1l2.2 2.4c2.4 2.6 2.1 4.9-.5 3.9-1.2-.4-1.4.1-1.2 2.3.2 2.3-.1 2.8-1.4 2.6-1-.2-1.8.2-1.8.7 0 .6-.8.7-1.7.4-1.6-.6-1.6-.5-.4 1 1.1 1.4 1.1 1.7-.1 1.7-.8 0-1.9-.5-2.5-1.1-1.6-1.6-3.5-.1-3.1 2.4.2 1.7-.2 2.2-2 2.1-1.6 0-2.1.4-1.7 1.3.4 1.1-.1 1.3-1.7.7-2.2-.7-2.2-.6-.5 2 1.5 2.2 1.5 2.6.2 2.6-.8 0-1.5.6-1.5 1.3 0 .8-1 1.9-2.2 2.4-1.8.8-3.3.5-7-1.3-2.7-1.4-4.7-2.8-4.5-3.2.1-.4-1-2.3-2.6-4.3-3.1-4.1-3.4-6.4-1-7.3 1.3-.5.3-1.5-4.2-4-3.8-2.1-5.9-4-5.9-5 .1-.9-.5-1.6-1.3-1.6s-2.6-.9-4-2-2.1-2-1.4-2c2 0 1.1-1.5-2-3.2-1.6-1-5.9-2.3-9.5-3-3.5-.6-6.4-1.5-6.4-2 0-.4-.6-.8-1.4-.8-.8 0-1.6-.7-2-1.5-.3-.8-1.5-1.5-2.6-1.5-2.8 0-2.6-.7 2.1-5.7l4-4.4-.3-8.7c-.3-8.4-.4-8.7-2.8-9-1.4-.2-2.9-1-3.3-1.8-1.2-2.1-3.2-1.7-8 1.3-11.5 7.2-14.6 8.4-24.7 9.5l-9.9 1.1-10.2-6.1c-10.4-6.3-12.3-7-13.4-5.2-.3.5-2.1 1-4 1h-3.3l.3 6.6c.2 3.8 1.1 7.6 2 9 .9 1.4 1.3 2.9 1 3.4-.3.6.1 1 1 1 1.1 0 1.5.7 1.3 2.2-.2 1.7-1 2.3-3 2.5-3.4.2-6.7 2.4-8.2 5.4-1.2 2.4-3.3 2.6-2.8.3.3-1.3-.5-1.4-4.5-.8-4.2.6-5.8 1.6-12.8 8.3-4.4 4.2-8.2 8.3-8.3 9.1-.2.8-1.5 2.7-2.8 4.1-1.4 1.4-2.4 3-2.3 3.5.4 2.5-.3 4.2-2.3 5.2l-2.3 1.1h2.3c2.2.1 2.1.3-1.2 3.5-2 1.8-3.6 4-3.6 4.7.1.9.6.7 1.6-.6 1.5-2 1.5-1.9 1.2.5-.2 1.4-.9 2.4-1.6 2.2-.6-.1-1.2.5-1.2 1.3 0 1.7-2.3 3-6.7 3.8l-3.3.6.6-3.7c.5-3 .3-3.5-.7-2.5-.7.7-2.1 1.3-3 1.3-1 0-2.5 1-3.3 2.2-2 2.8-2.6 2.1-2.9-2.9-.2-4.3-1.7-4.7-3.5-1-.6 1.2-1.1 1.6-1.1.9-.1-.7.4-2.2.9-3.3.9-1.5.7-1.9-.5-1.9-1.3 0-1.5-.6-1-3.3.7-3.2.7-3.2-1.4-1.3-1.7 1.6-2.3 1.7-3.6.6-.9-.7-1.4-1.9-1.1-2.7.7-1.6-.6-1.7-2.2-.1-1.4 1.4-4.3-.7-3.6-2.7.3-.7.1-1.6-.5-2-.7-.3-.8-1.3-.3-2.3 1.6-3.5.8-5.7-2.1-6-1.9-.2-2.7-.8-2.3-1.7.2-.7-.2-1.6-1-1.9-.8-.3-1.4-1.6-1.4-3 0-1.6-.7-2.7-2-3.1-2.4-.8-2.4-1.4-.6-8.3 1.4-5.4.8-6.8-1.3-3-1.1 2.1-1.1 2.1-.7-.9.3-1.8.1-3.5-.5-3.9-.6-.3-.8-1.3-.5-2.1.3-.8-.3-2.4-1.4-3.5-1.1-1.2-2-1.8-2-1.2-.1.5-.7-.8-1.5-2.9-.7-2.2-2.2-4.5-3.3-5.3-1.3-.9-1.8-2.1-1.5-3.4.3-1.1-.2-2.7-1.1-3.6-1-.9-1.4-2.4-1.1-3.4.3-1 .1-2.1-.5-2.5-.6-.4-1.1-2.1-1-3.9.1-1.7.1-3.6 0-4.1-.2-.6-.3-2.1-.4-3.5-.1-1.4-.5-5.3-1-8.7-.7-4.9-1.2-6-2.4-5.6-1.2.5-1.3.3-.5-1.2.8-1.3.6-2.5-.5-4.5-1.5-2.5-1.4-3 .6-6.3 1.2-2 1.7-3.9 1.2-4.2-1.8-1.1-.8-18.7 1.2-22.3 1-1.8 1.8-3.9 1.8-4.7 0-.7 1.1-2.7 2.5-4.3 2.3-2.8 2.8-2.9 5.5-1.9 1.7.6 3 1.4 3 1.8 0 1.2 3.8.2 5.4-1.4 2.1-2 3-2.1 4.8-.5.8.7 2.3 1.8 3.3 2.4 1.1.6 2.2 1.9 2.5 3 1 3.4 4.5 8.4 6.3 9 .9.3 1.7 1.3 1.7 2.3 0 2.7.7 2.9 5.8 1.9 7.7-1.4 15.5-1.8 16.8-.7.8.7 1.4.6 1.9-.1.5-.8 1.3-.6 2.6.6 1.2 1.1 2.4 1.4 3.6.8 1.6-.7 5.1-1.1 12.3-1.5 1.4 0 3.1-.6 3.9-1.2.7-.6 2.9-1 4.8-.8 3.1.2 3.4.1 2.5-1.6-.8-1.4-2-1.8-4.9-1.7-2.1.1-4.1-.3-4.5-.9-.5-.8-1.5-.4-3.2 1.2-2.1 2-2.5 2.1-3.3.7-.6-1.1-3.1-1.8-8-2.2-4-.4-7-1.1-6.7-1.5.3-.5-.7-.9-2.3-.9-3.2-.1-7.6-2.9-5.5-3.7 2.5-1 4-3.4 4.7-7.5 1.2-8.3 4.1-11.6 12.9-14.8 2.7-1 2.8-.9 2.2 1.2-1.7 5.7-1.8 9.6-.2 12.5 2.6 5.1 6.2 7.3 11.9 7.3 4.4 0 5.3-.4 8.8-3.9 2.9-2.8 3.9-4.7 3.9-7 0-4.3 2.3-4 5.5.6 1.4 2.1 4.2 4.5 6.3 5.4l3.7 1.7-2.5 1-2.5 1.1h3c5.5.1 5.9-1.1 2-6.7-4.3-6.3-4.1-9.1.7-9.2 1.8 0 8.8 5.8 8.8 7.4 0 .6 1.3 2.4 2.9 3.9l3 2.7 1.5-2.1c.8-1.2 1.9-1.8 2.4-1.5 1.4.8 2.4-3.8 1.3-6.6-.4-1.3-.6-2.9-.4-3.6.3-.7.1-1.8-.5-2.5-1.8-2.3-2.2-6.5-1.1-11.3 1.6-7.1 1.7-11 .6-14.8-.8-2.5-1.5-3.2-3-2.8-1.3.3-2-.2-2.4-1.7-.5-2.1-.7-2.1-3.1-.5-2.5 1.6-2.6 1.6-7.1-3-5.8-5.9-11.5-10-11.9-8.6-.2.5-2.1 1-4.2 1-4 0-5.7-1.9-3.7-3.9.8-.8.7-1.1-.6-1.1-.9 0-1.7-.7-1.7-1.5s.5-1.5 1.1-1.5c.6 0 2.9-1.5 5.2-3.4 4.4-3.5 26.4-14.5 38.2-19.1 3.9-1.5 7.4-3.1 7.9-3.6 1.3-1.2 4.6 1.9 3.9 3.7-.3 1 .2 1.4 1.9 1.4s3.8-1.5 6.7-5c2.3-2.8 4.8-5 5.4-5 .7 0 3.4-1.1 6.1-2.5 2.7-1.4 5.9-2.5 7.1-2.5 1.2 0 2.5-.3 2.9-.7.3-.4 1.4-.8 2.3-.9.9-.2 2.7-.5 4-.9 1.3-.3 2.3-.1 2.3.5s.9.6 2.7-.1c1.9-.7 2.9-.7 3.1 0 .5 1.4 9.3.2 11.3-1.5.8-.8 3.1-1.4 5.1-1.4 2.1 0 4.6-.9 6.2-2.1 2.1-1.6 3-1.8 4.1-.9 1 .8 1.9.9 3.5 0 1.1-.6 2.5-.8 3-.5.5.3 2.7-.6 4.7-2 2.5-1.7 4.5-2.3 5.8-1.9 1.1.3 3.3.7 4.8.9zm-129.5 62.9c2.6 2.3 2.8 3.6.5 3.6-1.5 0-4.5-3.7-6.2-7.5-.4-1 1.8.5 5.7 3.9zM285 242c0 .5-.4 1-1 1-.5 0-1-.5-1-1 0-.6.5-1 1-1 .6 0 1 .4 1 1zm-6 1c0 .5-1.4 1-3.1 1-1.7 0-2.8-.4-2.4-1 .3-.6 1.7-1 3.1-1 1.3 0 2.4.4 2.4 1zm13 1.8c0 .5 1.8 1.5 4 2.2 2.2.7 4.6 2 5.3 2.8 1 1.3.7 1.4-2.8.6-4.9-1-13.1-1.2-16.5-.2-1.4.4-3.1.3-3.9-.2-3.1-1.8 3.7-5.8 10.2-5.9 2-.1 3.7.3 3.7.7zm-30 1.2c0 .5-.4 1-1 1-.5 0-1-.5-1-1 0-.6.5-1 1-1 .6 0 1 .4 1 1zm31.4 15.1c-.3.5-1 .7-1.5.3-.5-.3-.7-1-.3-1.5.3-.5 1-.7 1.5-.3.5.3.7 1 .3 1.5zm143.6 2.4c0 .8-.4 1.5-1 1.5-.5 0-1-.7-1-1.5s.5-1.5 1-1.5c.6 0 1 .7 1 1.5zM311 387c0 .5-.8 1-1.8 1s-2.4.6-3.1 1.2c-1.1 1-1 .8 0-1 1.4-2.2 4.9-3.1 4.9-1.2zm-7 1.5c-.7.9-1.5 1.3-1.7 1.1-.7-.7.7-2.6 1.9-2.6.6 0 .6.6-.2 1.5zm-3.5 6.5c-.3.5-1.1 1-1.6 1-.6 0-.7-.5-.4-1 .3-.6 1.1-1 1.6-1 .6 0 .7.4.4 1zm57.5 7.4c0 .3-.4.8-1 1.1-.5.3-1 .1-1-.4 0-.6.5-1.1 1-1.1.6 0 1 .2 1 .4zm8.4 3.5c1.1 1.2 2.9 2.1 4 2.1 2.3 0 6.6 2.6 6.6 3.9 0 .4-2.1 2.3-4.7 4.2-3.6 2.5-6 3.5-9.5 3.6-4.9.3-12.5-2.4-14.8-5.2-.7-.8-1.8-1.5-2.5-1.5-1.7 0-4.8-3.7-4.1-4.8.5-.9 5.7-2.3 9.9-2.8.9 0 1.7.5 1.7 1.2 0 .8.9 1.4 2.1 1.4 1.5 0 1.9.5 1.5 1.5-.3.8-.1 1.5.4 1.5.4 0 1.4-1.7 2.1-3.8.6-2 1.4-4 1.6-4.5.6-.9 3.4.6 5.7 3.2zm-26.4.6c0 .8-.4 1.5-1 1.5-.5 0-1-.7-1-1.5s.5-1.5 1-1.5c.6 0 1 .7 1 1.5zm-9.9.7c3.2-.1 3.7.9 1.3 2.9-1.3 1-1.7 1-2.5-.2-.6-1-.9-1-.9-.2 0 1.5-.9 1.6-2.9.4-.8-.5-1.1-1.6-.8-2.6.4-.9 1.2-1.3 1.8-.9.7.4 2.5.7 4 .6zm-14.5 10.5c-2.8 2.4-5.6 3-5.6 1.2 0-1.3 1.6-4.4 4.4-8.7l2.1-3.2.9 4.1c.9 3.9.7 4.4-1.8 6.6zm-78.1-7.7c.3.5.1 1-.4 1-.6 0-1.1-.5-1.1-1 0-.6.2-1 .4-1 .3 0 .8.4 1.1 1zm159.5 3.6c0 1.4-.3 1.4-1.5.4-.8-.7-1.5-1.4-1.5-1.6 0-.2.7-.4 1.5-.4s1.5.7 1.5 1.6zm-55.1 2.6c1.1 2.8-.5 5-1.9 2.8-1.3-2-1.3-5 0-5 .6 0 1.5 1 1.9 2.2zm2.1 7.4c0 1.7-2.2 1.4-2.8-.4-.2-.7.3-1.2 1.2-1.2.9 0 1.6.7 1.6 1.6zm-80 6.9c0 .8-.7 1.5-1.5 1.5s-1.5-.7-1.5-1.5.7-1.5 1.5-1.5 1.5.7 1.5 1.5zm73 1.4c0 2.3 20.1 2.8 33.5.8 1.7-.3 3.4-.2 3.9.1 1.9 1.1 7.6.7 8.1-.7.4-1.1.8-1.2 1.7-.3.7.7 2.9 1.2 4.9 1.2 2.1 0 4 .6 4.2 1.2.4 1 .8 1 1.5 0 .7-1.1 1.4-.7 3.1 1.6 1.2 1.7 3 3.4 4.1 3.7 2.4.8 2.7 4.5.4 4.5-1 0-1.3.6-1 1.8.9 2.7-7.4 6.6-14.1 6.6-4.8.1-5.3-.1-5.3-2.2 0-2.7-.5-2.7-6-.1-3.9 1.9-5.4 2-12.9 1.4-13.1-1.1-19.8-.9-22.4.8-2.8 1.8-8.5 1.1-11.4-1.5-1.2-1.1-2.6-1.7-3.2-1.4-.6.4-4 .1-7.7-.6-6.4-1.1-6.7-1.1-8.3 1-1.3 1.8-2.3 2.1-4.9 1.6-2-.4-3.8-.2-4.7.6-2.1 1.8-2.6.9-1.6-2.7 1-3.3-.1-5.3-2.8-5.3-1.2 0-1.1-.3.2-1.8 1-1 1.7-2.3 1.7-3 0-3.2 14.4-3.8 17.1-.6 1.4 1.7 2.9 1.8 2.9.1 0-.6 1.5-2.3 3.3-3.7 2.5-2 4.2-2.5 8-2.4 2.6.1 4.7-.2 4.7-.7 0-.5.7-.9 1.5-.9s1.5.4 1.5.9zm-62 1.6c1 1.1 1 1.8.1 2.9-.9 1.1-.9 1.5.1 1.9.9.3.7 1.1-.9 2.8-1.7 1.9-2.2 3.6-2.2 8.3 0 3.2-.4 6.3-1 6.9-1.7 1.7-2.5-.1-1.2-2.9 1-2.2.9-3-.5-4.5-.9-1-1.4-2.4-1.1-3.1.2-.7-.1-2-.8-2.8-2.7-3.2-2.7-5.9-.1-8.5 2.8-2.8 5.8-3.2 7.6-1zm135.2 5.7c-.6.6-1.5.8-1.9.4-.4-.4-.1-1.1.7-1.6 1.9-1.2 2.7-.3 1.2 1.2zm4.2 1.4c.9.3 1.6 1.4 1.6 2.4s.6 2.1 1.3 2.3c.6.3 0 .6-1.5.6-1.8.1-2.8-.4-2.8-1.3 0-.8-.3-2.1-.6-3-.7-1.8-.4-1.9 2-1zm28.9 4.8c.3.7 0 1.9-.6 2.5-1.8 1.8-2.9 1.3-1.8-.8.6-1 .7-2.1.4-2.5-.3-.3-.2-.6.4-.6.6 0 1.3.6 1.6 1.4zm-57 30.9c-.4 1.9-.3 2 .6.5.9-1.2 2-1.5 4.6-1.1 3 .5 3.5.3 3.5-1.5s.3-1.9 2.5-.9c1.5.8 2.5 2 2.5 3.4 0 1.2.7 2.3 1.7 2.5.9.2 1.7 1.2 1.8 2.3.1 1.1.6 3.3 1 4.8.8 3.2 1.3 3.2-6.3-.8-4.1-2.1-4.6-1.7-2.7 1.9 1.8 3.3 1.9 3.9.5 3.1-.5-.3-1-.3-1 .2 0 1.5-4.7 3-7.8 2.5-2.2-.3-3.2-1.1-3.6-2.8-.4-1.3-1.3-2.4-2.1-2.4s-1.6-1-1.6-2.3l-.2-2.2-.4 2.2c-.2 1.3-.9 2.3-1.4 2.3-.5 0-.9.7-.9 1.5 0 2-1.6 1.9-2.4-.1-.3-.8-1.1-1.2-1.7-.9-.6.5-.9 0-.8-1.1.2-1.1 0-2.6-.5-3.4-.5-.8-.6-1.2-.1-.8.5.5 1.3-.2 1.9-1.5.6-1.2 2.6-2.6 4.4-3.2 1.7-.5 3.2-1.3 3.2-1.9 0-.5.7-1.8 1.7-2.8 2-2.3 4.3-.7 3.6 2.5zm-62.5-1.7c2.1 1.4 2.1 1.7.7 5.2-1.5 3.4-3 5.1-4.7 5.2-1.3 0-.9-2.8.4-3.2.6-.2 1.2-1.4 1.3-2.5.1-2.1 0-2.1-2.7-.7-2.5 1.3-3.1 1.3-4.3.1-1.2-1.3-1.2-1.7.3-3 .9-.8 2.2-1.2 2.9-1 .6.2 1.4-.1 1.8-.6.8-1.5 1.7-1.4 4.3.5zm6 1.7c.2 1-.3 1.7-1.2 1.7-1 0-1.6-.9-1.6-2.1 0-2.4 2.3-2.1 2.8.4zm7.3 2.6c-1.2.9-2.6 3.3-3.2 5.4-.5 2-1.4 3.7-1.9 3.7-.6 0-.9-.3-.9-.8.1-.4.1-1.7 0-3-.1-1.8-.5-2.1-2.5-1.6-1.9.4-2.4.2-2.3-1.3.2-1.3 1.8-2.3 5.7-3.4 6.2-1.8 8.3-1.4 5.1 1zm3.6 2.7c1 .9 2.5 1.3 3.9 1 1.2-.3 2.5-.2 2.8.3.9 1.4-.5 4.2-1.6 3.5-.6-.4-.9 1.2-.7 4 .3 4.6-1.4 8.2-2.9 6-1.2-1.9-3.6-2.2-5.4-.6-1.2 1-1.8 1.1-1.8.4 0-.7.4-1.2.9-1.2 1.2 0 2.1-3.9 1-4.6-.5-.3-.9-1.2-.9-2.1 0-1.2.3-1.3 1.4-.3 1.3 1 1.5.7 1.3-1.7-.1-1.5-.6-3.1-1.1-3.4-.8-.7 0-2.9 1-2.9.3 0 1.3.7 2.1 1.6zm-12.7 3.8c0 .3-.4.8-1 1.1-.5.3-1 .1-1-.4 0-.6.5-1.1 1-1.1.6 0 1 .2 1 .4zm23.7 2.9c.8 1.6.8 2.9.1 4.2-.8 1.3-.7 2 .4 2.6 2 1.1 1.6 5.3-.5 5.7-1.2.2-1.7-.3-1.7-1.8 0-1.2-.4-1.8-1-1.5-.5.3-1 1.5-1 2.6 0 1.7-.5 1.9-3.7 1.5-2.1-.3-3.9-.5-3.9-.5-.1-.1 1.6-1.8 3.7-4 3.1-3.1 3.9-4.6 3.9-7.5 0-4.2 2.1-4.9 3.7-1.3zm19.3 1.2c.7.8 1.5 1.3 1.9 1.1.3-.2.7 1.6.9 4 .1 2.6-.2 4.4-.8 4.4-.6 0-.8.6-.4 1.2.4.7-.4.2-1.7-1.2-1.5-1.5-2.3-3.4-2.1-5 .2-2.3.1-2.4-1.1-.8-.8 1-1.9 1.8-2.5 1.8-.5 0-.8 1-.5 2.1.8 2.9-1.5 2.1-3.6-1.2-1-1.6-1-2-.1-1.2 1 .9 1.6.7 3-1 .9-1.2 1.9-3 2.3-4 .8-2.1 3-2.2 4.7-.2zm-50 2.5c0 .5-.4 1-1 1-.5 0-1-.5-1-1 0-.6.5-1 1-1 .6 0 1 .4 1 1zm56 3c.7 1.7 1 3.3.6 3.7-.9.9-1.5 0-2.6-3.6-1.1-4 .4-4.1 2-.1zm-11.3 8.2c-.3.8-.6.5-.6-.6-.1-1.1.2-1.7.5-1.3.3.3.4 1.2.1 1.9zm-21 3c-.3.8-.6.5-.6-.6-.1-1.1.2-1.7.5-1.3.3.3.4 1.2.1 1.9zM460 512c0 .5-.7 1-1.5 1s-1.5-.5-1.5-1c0-.6.7-1 1.5-1s1.5.4 1.5 1zm-204.9 43c.9 0 1.9.9 2.2 2.1.3 1.2 1 1.8 1.5 1.5.6-.3 3.5 1.6 6.5 4.4 3 2.7 5.9 5 6.3 5 1.4.1 10.9 9.2 12.2 11.7.7 1.2 2.5 2.4 4.2 2.8 1.6.4 3 1 3 1.4 0 .9 9.4 7.1 10.8 7.1 1.6 0 7.6 3.4 8.5 4.8.5.7 2 1.7 3.4 2.3 1.4.5 2.3 1.2 1.9 1.6-1 1 2.5 4.3 4.6 4.3 1.1 0 2.7.4 3.7 1 1 .5 6.7 1.2 12.7 1.5 6 .4 11.5 1.2 12.3 1.8 1.1.9 1.5.9 1.8 0 .2-.7 1.1-.9 1.9-.6.8.3 2.1 0 2.9-.7 1.2-1 1.6-.9 2.1.4.5 1.4 1.6 1.6 6.4 1 3.4-.4 6.5-.2 7.7.4 1.1.6 2.4.7 2.9.2 1.3-1.2 5.7-1.6 7.3-.6.8.5 1.6.4 2.1-.4.4-.7 1.2-1 1.8-.6.6.3 1.2 0 1.5-.6.4-1.3 1.7-.9 8.1 2.4 1.2.7 2.1.6 2.5-.1 1.3-2.1 17.1.2 17.1 2.5 0 1.2.8 1.3 3.5.8 3.4-.6 3.5-.5 3.5 2.6 0 2.5.4 3.1 1.5 2.6 2.6-.9 4 4.2 1.8 6.6-3.5 3.9-16.1 12.8-22.8 16.1-24.5 12.2-75.8 16.2-104 8.1-12.5-3.5-29.5-12.2-38.2-19.4-12.4-10.3-31.2-33.6-32.9-40.8-.4-1.5-1.2-3.4-1.9-4.2-1.6-1.9-2.8-6.5-2.9-11-.1-1.9-.5-4.1-.9-4.8-.5-.7-.4-1.2.2-1.2.6 0 1.1.4 1.1.9s1 1.1 2.3 1.3c1.6.2 2.3 1.1 2.5 3 .6 5.2 2.7 3.1 2.7-2.7 0-3.7-.4-5.5-1.2-5.5-.7 0-1.3-.5-1.3-1 0-1.2.2-1.2 3.4 0 2.1.7 2.6.6 2.6-.5 0-1.7 2.6-2 3.5-.5 1.1 1.8 2.3 1.1 1.8-1-.4-1.4 0-2 1.1-2 .9 0 1.6-.6 1.6-1.3 0-2.1 4.1-3.7 8-3.2 1.9.3 4.2.5 5.1.5zM421 609c0 .5-.7 1-1.5 1s-1.5-.5-1.5-1c0-.6.7-1 1.5-1s1.5.4 1.5 1zm3.9 6.2c-.8 1.4-1.4 1.8-1.7 1-.4-1.3 1.7-4.6 2.5-3.8.3.2-.1 1.5-.8 2.8zm4.6-.2c.3.5-.1 1-.9 1-.9 0-1.6-.5-1.6-1 0-.6.4-1 .9-1 .6 0 1.3.4 1.6 1zm.5 3.4c0 .3-.4.8-1 1.1-.5.3-1 .1-1-.4 0-.6.5-1.1 1-1.1.6 0 1 .2 1 .4z"/></svg>